# xmcd CD database file
#
# Track frame offsets:
#	150
#	17530
#	33447
#	51822
#	74440
#	92142
#	115890
#
# Disc length: 1704 seconds
#
# Revision: 0
# Processed by: cddbd v1.5.1PL2 Copyright (c) Steve Scherf et al.
# Submitted via: CD2WAV32(JP) R3.22
#
DISCID=5606a607
DTITLE=沢知恵 - こころ
DYEAR=1998
DGENRE=Blues
TTITLE0=それだけで美しい
TTITLE1=こころ
TTITLE2=恋のはじまり
TTITLE3=あなたなしでは
TTITLE4=花のような恋
TTITLE5=恋する人魚
TTITLE6=あなたにとって
EXTD=
EXTT0=
EXTT1=
EXTT2=
EXTT3=
EXTT4=
EXTT5=
EXTT6=
PLAYORDER=
